# xmcd
#
# Track frame offsets:
#	150
#	18612
#	35455
#	52480
#	66955
#	85045
#	99320
#	114492
#	122660
#	136195
#	148702
#	167325
#	180352
#	200077
#
# Disc length: 2929 seconds
#
# Revision: 1
# Processed by: cddbd v1.5.1PL0 Copyright (c) Steve Scherf et al.
# Submitted via: EasyCDDAExtractor 5.0.6
#
DISCID=c10b6f0e
DTITLE=Renato Reixeira - Vol. 1
DYEAR=1900
DGENRE=country
TTITLE0=Romaria
TTITLE1=Vida malvada
TTITLE2=Iluminação
TTITLE3=Frete
TTITLE4=Morro da Imaculada
TTITLE5=Mato adentro
TTITLE6=A primeira vez que fui ao Rio
TTITLE7=Vira (no meu quintal)
TTITLE8=Invernada
TTITLE9=O maior mistério
TTITLE10=Uma velha canção do povo
TTITLE11=Agulha no palheiro
TTITLE12=Amizade sincera
TTITLE13=Irmãos da Lua
EXTD=
EXTT0=
EXTT1=
EXTT2=
EXTT3=
EXTT4=
EXTT5=
EXTT6=
EXTT7=
EXTT8=
EXTT9=
EXTT10=
EXTT11=
EXTT12=
EXTT13=
PLAYORDER=
